<svg xmlns="http://www.w3.org/2000/svg" viewBox="0 0 128 128" width="128" height="128" role="img" aria-label="Çözüm Var Logo">
  <defs>
    <linearGradient id="g" x1="0" y1="0" x2="1" y2="1">
      <stop offset="0%" stop-color="#1976D2"/>
      <stop offset="100%" stop-color="#0D47A1"/>
    </linearGradient>
  </defs>
  <rect x="8" y="8" width="112" height="112" rx="16" fill="url(#g)"/>
  <g fill="#FFFFFF">
    <path d="M64 28c19.882 0 36 16.118 36 36s-16.118 36-36 36S28 83.882 28 64 44.118 28 64 28zm0 8c-15.464 0-28 12.536-28 28s12.536 28 28 28 28-12.536 28-28S79.464 36 64 36z"/>
    <path d="M58 66l-8-8 5.657-5.657L58 54.686l14.343-14.343L78 46l-20 20z"/>
  </g>
</svg>